{"title":"Western.Union.1941.480p.DVDRip.XviD.AC3.RoHardSubbed-RSB","uid":5908812,"size":4012041942,"categoryP":"video","categoryS":"movies","magnet":"?xt=urn:btih:589f6cb57da86761e78b54071aca9d680608c16d&amp;dn=Western.Union.1941.480p.DVDRip.XviD.AC3.RoHardSubbed-RSB&amp;tr=udp%3A%2F%2Ftracker.openbittorrent.com%3A80&amp;tr=udp%3A%2F%2Fopen.demonii.com%3A1337&amp;tr=udp%3A%2F%2Ftracker.coppersurfer.tk%3A6969&amp;tr=udp%3A%2F%2Fexodus.desync.com%3A6969","seeders":0,"leechers":1,"uploader":"deffjam555","files":5,"time":1287986726,"description":" &lt;a href=&quot;http://www.imdb.com/title/tt0034384/&quot; rel=&quot;nofollow&quot; target=&quot;_NEW&quot;&gt;http://www.imdb.com/title/tt0034384/&lt;/a&gt;\n\ncover\n\n\nscreens\n\n\n\nPlot:\n\nVance Shaw gives up outlawing and goes to work for the telegraph company; his brother Jack Slade leads outlaws trying to prevent the company connecting the line between Omaha and Salt Lake City. Lots of Indian fighting and gunplay.\n\n\nCast:\n\nRobert Young\t... Richard Blake\nRandolph Scott\t... Vance Shaw\nDean Jagger\t... Edward Creighton\nVirginia Gilmore\t... Sue Creighton\nJohn Carradine\t... Doc Murdoch\nSlim Summerville\t... Herman, called 'Cookie'\nChill Wills\t... Homer Kettle\nBarton MacLane\t... Jack Slade\nRussell Hicks\t... Provisional Governor, Territory of Nebraska\nVictor Kilian\t... Charlie\nMinor Watson\t... Pat Grogan\nGeorge Chandler\t... Herb\nChief John Big Tree\t... Chief Spotted Horse (as Chief Big Tree)\nChief Thundercloud\t... Indian Leader\nDick Rich\t... Porky\nAddison Richards\t... Capt. Harlow\nIrving Bacon\t... Joe the Barber\nC.E. Anderson\t... Old Timer (uncredited)\nArthur Aylesworth\t... Woody (uncredited)\nHank Bell\t... Telegraph Worker (uncredited)\n\n\nSOURCE: Western Union (1941) DVDRip (SiRiUs sHaRe)\nAUDIO LANGUAGE: English\n\nFormat : AVI\nFile size : 3.67 GiB\nDuration : 1h 31mn\nOverall bit rate : 5 735 Kbps\n\nVideo\nFormat : MPEG-4 Visual\nFormat settings, BVOP : Yes\nFormat settings, QPel : No\nFormat settings, GMC : No warppoints\nCodec ID/Hint : XviD\nDuration : 1h 31mn\nBit rate : 5 533 Kbps\nWidth : 720 pixels\nHeight : 480 pixels\nDisplay aspect ratio : 3:2\nFrame rate : 25.000 fps\nStandard : NTSC\nColor space : YUV\nChroma subsampling : 4:2:0\nBit depth : 8 bits\nScan type : Progressive\nBits/(Pixel*Frame) : 0.640\nStream size : 3.54 GiB (96%)\n\nAudio\nFormat : AC-3\nFormat/Info : Audio Coding 3\nMode extension : CM (complete main)\nDuration : 1h 31mn\nBit rate mode : Constant\nBit rate : 192 Kbps\nChannel(s) : 6 channels\nChannel positions : Front: L C R, Side: L R, LFE\nSampling rate : 48.0 KHz\nBit depth : 16 bits\nStream size : 126 MiB (3%)\nAlignment : Split accross interleaves\nInterleave, duration : 40 ms (1.00 video frame)\nInterleave, preload duration : 500 ms\n\n\nEnJoY iT ! \n","torrent":{"xt":"urn:btih:589f6cb57da86761e78b54071aca9d680608c16d","amp;dn":"Western.Union.1941.480p.DVDRip.XviD.AC3.RoHardSubbed-RSB","amp;tr":["udp%3A%2F%2Ftracker.openbittorrent.com%3A80","udp%3A%2F%2Fopen.demonii.com%3A1337","udp%3A%2F%2Ftracker.coppersurfer.tk%3A6969","udp%3A%2F%2Fexodus.desync.com%3A6969"],"infoHash":"589f6cb57da86761e78b54071aca9d680608c16d","infoHashBuffer":{"type":"Buffer","data":[88,159,108,181,125,168,103,97,231,139,84,7,26,202,157,104,6,8,193,109]},"announce":[],"urlList":[]}}